<?xml version="1.0" encoding="UTF-8" standalone="no"?>
<svg
   viewBox="0 0 576 512"
   version="1.1"
   id="svg56"
   sodipodi:docname="arrow-trend-up-solid.svg"
   inkscape:version="1.2.2 (b0a8486541, 2022-12-01)"
   xmlns:inkscape="http://www.inkscape.org/namespaces/inkscape"
   xmlns:sodipodi="http://sodipodi.sourceforge.net/DTD/sodipodi-0.dtd"
   xmlns="http://www.w3.org/2000/svg"
   xmlns:svg="http://www.w3.org/2000/svg">
  <defs
     id="defs60" />
  <sodipodi:namedview
     id="namedview58"
     pagecolor="#505050"
     bordercolor="#eeeeee"
     borderopacity="1"
     inkscape:showpageshadow="0"
     inkscape:pageopacity="0"
     inkscape:pagecheckerboard="0"
     inkscape:deskcolor="#505050"
     showgrid="false"
     inkscape:zoom="1.7011719"
     inkscape:cx="288.03674"
     inkscape:cy="256.29392"
     inkscape:window-width="1910"
     inkscape:window-height="1037"
     inkscape:window-x="0"
     inkscape:window-y="0"
     inkscape:window-maximized="0"
     inkscape:current-layer="svg56" />
  <!--!Font Awesome Free 6.7.2 by @fontawesome - https://fontawesome.com License - https://fontawesome.com/license/free Copyright 2025 Fonticons, Inc.-->
  <path
     fill="#f6f5f4"
     d="m 191.925,160 c 17.7,0 32,-14.3 32,-32 0,-17.7 -14.3,-32 -32,-32 h -160 c -17.7,0 -32,14.3 -32,32 v 160 c 0,17.7 14.3,32 32,32 17.7,0 32,-14.3 32,-32 v -82.7 l 169.4,169.3 c 12.5,12.5 32.8,12.5 45.3,0 l 105.3,-105.3 137.4,137.3 c 12.5,12.5 32.8,12.5 45.3,0 12.5,-12.5 12.5,-32.8 0,-45.3 l -160,-160 c -12.5,-12.5 -32.8,-12.5 -45.3,0 L 255.925,306.7 109.225,160 Z"
     id="path54" />
</svg>
